<svg width="21" height="20" viewBox="0 0 21 20" fill="none" xmlns="http://www.w3.org/2000/svg">
<path fill-rule="evenodd" clip-rule="evenodd" d="M10.5 20C16.0228 20 20.5 15.5228 20.5 10C20.5 4.47715 16.0228 0 10.5 0C4.97715 0 0.5 4.47715 0.5 10C0.5 12.2512 1.24389 14.3287 2.49927 16L2.49977 18.7708C2.49989 19.4049 3.08261 19.8788 3.70344 19.7497L6.5 19.1679C7.72492 19.7031 9.07779 20 10.5 20ZM5.20509 11.707L7.95568 7.7776C8.26078 7.34174 8.85374 7.22109 9.30491 7.50307L11.9525 9.15781C12.2858 9.36612 12.7102 9.35988 13.0372 9.14187L15.2092 7.69385C15.3783 7.58113 15.6034 7.60343 15.7471 7.74711C15.8934 7.89337 15.9135 8.12353 15.7949 8.29299L13.0443 12.2224C12.7392 12.6583 12.1463 12.7789 11.6951 12.4969L9.0475 10.8422C8.71421 10.6339 8.28981 10.6401 7.9628 10.8581L5.79077 12.3062C5.6217 12.4189 5.39657 12.3966 5.25289 12.2529C5.10663 12.1066 5.08647 11.8765 5.20509 11.707Z" fill="#7D7C7C"/>
</svg>
