<svg width="21" height="20" viewBox="0 0 21 20" fill="none" xmlns="http://www.w3.org/2000/svg">
<path fill-rule="evenodd" clip-rule="evenodd" d="M20.5 10C20.5 14.9964 16.8357 19.1369 12.0479 19.8809C11.7558 19.9263 11.5 19.6942 11.5 19.3985V12H13.5C14.0523 12 14.5 11.5523 14.5 11C14.5 10.4477 14.0523 10 13.5 10H11.5V8C11.5 7.44772 11.9477 7 12.5 7H13.5C14.0523 7 14.5 6.55228 14.5 6C14.5 5.44772 14.0523 5 13.5 5H12.5C10.8431 5 9.5 6.34315 9.5 8V10H8.5C7.94772 10 7.5 10.4477 7.5 11C7.5 11.5523 7.94772 12 8.5 12H9.5V19.3985C9.5 19.6942 9.24425 19.9263 8.95208 19.8809C4.16427 19.1369 0.5 14.9964 0.5 10C0.5 4.47715 4.97715 0 10.5 0C16.0228 0 20.5 4.47715 20.5 10Z" fill="#7D7C7C"/>
</svg>
