<svg width="24" height="24" viewBox="0 0 24 24" fill="none" xmlns="http://www.w3.org/2000/svg">
<path d="M4.27567 0.248037C4.60397 0.458145 4.9326 0.668253 5.26091 0.878362C5.28681 0.90623 5.31552 0.929402 5.35515 0.933785C5.47031 1.03023 5.60139 1.10256 5.73152 1.17615C6.00772 1.36778 6.29202 1.54658 6.58195 1.71629C6.65528 1.77704 6.73299 1.83089 6.82162 1.86784C6.89777 1.93924 6.98765 1.9884 7.08128 2.03161C7.40615 2.25706 7.74102 2.46717 8.07931 2.67133C8.11333 2.70233 8.14703 2.73395 8.19478 2.74241C8.2856 2.82288 8.39202 2.87831 8.49719 2.93655C8.65198 3.04583 8.8074 3.15354 8.97623 3.24059C8.98591 3.2694 9.01056 3.27285 9.03553 3.27535C9.1407 3.3696 9.26553 3.43348 9.38787 3.50112C9.72086 3.72907 10.0607 3.94638 10.4084 4.15148C10.5644 4.25262 10.7201 4.35376 10.8762 4.45521C11.1624 4.6362 11.4489 4.8175 11.735 4.99849C11.8118 5.06393 11.8964 5.11654 11.9884 5.15725C12.0615 5.22488 12.1435 5.2778 12.2365 5.31318C12.5533 5.53613 12.8797 5.74436 13.2159 5.93693C13.2702 5.98922 13.3301 6.03306 13.4019 6.05843C13.4849 6.13546 13.5854 6.18462 13.6821 6.23973C13.8207 6.32803 13.9592 6.41633 14.0975 6.50463C14.1346 6.52686 14.1721 6.54878 14.2092 6.57102C14.3113 6.65525 14.4196 6.72946 14.5413 6.78206C14.8696 7.01315 15.2113 7.22326 15.5533 7.43274C15.5733 7.44433 15.5936 7.45591 15.6136 7.46719C15.7484 7.55455 15.8832 7.6416 16.018 7.72896C16.3073 7.92435 16.6004 8.11348 16.9028 8.28758C16.9549 8.32641 17.0073 8.36492 17.0594 8.40375C17.0139 8.45573 16.9683 8.50802 16.9228 8.56C16.8294 8.65269 16.7358 8.74568 16.6425 8.83837C16.582 8.87751 16.5339 8.92949 16.4918 8.98742C16.3635 9.0967 16.2405 9.2113 16.131 9.33969C16.0842 9.36849 16.0464 9.40638 16.0177 9.45335C15.8994 9.57171 15.7815 9.69039 15.6632 9.80875C15.6164 9.83756 15.5786 9.87545 15.5499 9.92242C15.4113 10.0257 15.2978 10.1551 15.1823 10.2819C15.1405 10.3041 15.1086 10.3361 15.0865 10.378C14.9457 10.487 14.8278 10.6185 14.7085 10.7494C14.667 10.791 14.6255 10.8327 14.584 10.8743C14.5425 10.9122 14.4998 10.9485 14.4595 10.9877C14.3094 11.1345 14.3097 11.1348 14.1518 10.9955C14.08 10.9031 13.9979 10.8211 13.9059 10.7488C13.8319 10.6745 13.7579 10.6003 13.684 10.5261C13.6122 10.4338 13.5301 10.3514 13.4381 10.2794C13.3641 10.2052 13.2901 10.131 13.2162 10.0567C13.1444 9.96438 13.0623 9.88202 12.9702 9.81C12.8963 9.73579 12.8223 9.66158 12.7484 9.58737C12.6766 9.495 12.5945 9.41265 12.5024 9.34063C12.4285 9.26641 12.3545 9.1922 12.2805 9.11799C12.2088 9.02562 12.1267 8.94327 12.0346 8.87125C11.9607 8.79704 11.8867 8.72283 11.8127 8.64861C11.741 8.55624 11.6589 8.47389 11.5668 8.40187C11.4929 8.32766 11.4189 8.25345 11.3449 8.17924C11.2732 8.08686 11.1911 8.00451 11.099 7.93249C11.025 7.85828 10.9511 7.78407 10.8771 7.70986C10.8053 7.61749 10.7233 7.53513 10.6312 7.46312C10.5572 7.3889 10.4833 7.31469 10.4093 7.24048C10.3375 7.14811 10.2555 7.06576 10.1634 6.99374C10.1007 6.9308 10.0382 6.86817 9.97552 6.80523C9.89219 6.70159 9.79888 6.60828 9.69558 6.52436C9.62162 6.45015 9.54765 6.37594 9.47369 6.30173C9.40191 6.20935 9.31983 6.127 9.22777 6.05498C9.15381 5.98077 9.07984 5.90656 9.00588 5.83235C8.9341 5.73998 8.85202 5.65794 8.75996 5.5856C8.686 5.51139 8.61203 5.43718 8.53807 5.36297C8.46629 5.2706 8.38421 5.18825 8.29215 5.11623C8.21819 5.04202 8.14422 4.9678 8.07026 4.89359C7.99848 4.80122 7.9164 4.71887 7.82434 4.64685C7.75038 4.57264 7.67641 4.49843 7.60245 4.42421C7.53067 4.33184 7.4486 4.24949 7.35653 4.17747C7.28257 4.10326 7.2086 4.02905 7.13464 3.95484C7.06286 3.86246 6.98079 3.78011 6.88872 3.70809C6.81476 3.63388 6.74079 3.55967 6.66683 3.48546C6.59505 3.39309 6.51298 3.31073 6.42091 3.23872C6.34695 3.1645 6.27298 3.09029 6.19902 3.01608C6.12724 2.92371 6.04517 2.84136 5.9531 2.76934C5.87914 2.69513 5.80518 2.62092 5.73121 2.5467C5.65943 2.45433 5.57736 2.37198 5.48529 2.29996C5.41133 2.22575 5.33737 2.15154 5.2634 2.07733C5.19162 1.98495 5.10955 1.9026 5.01748 1.83058C4.94352 1.75637 4.86956 1.68216 4.79559 1.60795C4.72381 1.51558 4.64174 1.43322 4.54967 1.3612C4.47571 1.28699 4.40175 1.21278 4.32778 1.13857C4.256 1.0462 4.17393 0.963846 4.08186 0.891826C4.0079 0.817615 3.93394 0.743404 3.85997 0.669193C3.78819 0.57682 3.70612 0.494781 3.61436 0.422762C3.5404 0.348551 3.46644 0.274339 3.39248 0.200128C3.3569 0.138129 3.30135 0.0964831 3.233 0.052019C3.54259 -0.0353435 3.82876 -0.0184346 4.09934 0.146897C4.15832 0.185411 4.21762 0.215785 4.27567 0.248037Z" fill="white"/>
<path d="M4.79621 23.4214C4.62269 23.5325 4.44949 23.6437 4.27597 23.7545C4.2226 23.7733 4.1761 23.8024 4.13803 23.845C4.03442 23.8882 3.9305 23.9314 3.82689 23.9747C3.786 23.9803 3.74512 23.9862 3.70424 23.9919C3.58565 24.0072 3.46768 23.9997 3.35034 23.9794C3.29011 23.969 3.24704 23.9512 3.30883 23.8864C3.35783 23.8547 3.39871 23.8153 3.42867 23.7649C3.53197 23.6612 3.63496 23.5579 3.73825 23.4542C3.80098 23.4113 3.85372 23.3587 3.89648 23.2958C3.99978 23.1922 4.10277 23.0888 4.20606 22.9852C4.26879 22.9423 4.32153 22.8897 4.36429 22.8267C4.46759 22.7231 4.57057 22.6198 4.67387 22.5161C4.7366 22.4732 4.78934 22.4206 4.8321 22.3577C4.94851 22.2412 5.06522 22.1247 5.18163 22.0082C5.23 21.9772 5.27057 21.9384 5.29991 21.8886C5.40321 21.785 5.50651 21.6816 5.60949 21.578C5.67222 21.5351 5.72496 21.4825 5.76772 21.4195C5.87102 21.3159 5.974 21.2126 6.0773 21.1089C6.14003 21.0663 6.19277 21.0134 6.23522 20.9505C6.33852 20.8468 6.44181 20.7435 6.5448 20.6399C6.60753 20.597 6.66027 20.5443 6.70303 20.4814C6.81943 20.3649 6.93615 20.2484 7.05256 20.132C7.10093 20.101 7.1415 20.0621 7.17084 20.0123C7.27413 19.9087 7.37743 19.8054 7.48042 19.7017C7.54315 19.6591 7.59589 19.6062 7.63833 19.5433C7.74163 19.4396 7.84493 19.3363 7.94792 19.2327C8.01065 19.1901 8.06339 19.1372 8.10583 19.0742C8.20913 18.9706 8.31243 18.8672 8.41542 18.7636C8.47814 18.7207 8.53089 18.6681 8.57364 18.6052C8.69005 18.4887 8.80677 18.3722 8.92317 18.2557C8.97154 18.2247 9.01212 18.1859 9.04145 18.1361C9.14475 18.0324 9.24805 17.9291 9.35104 17.8255C9.41376 17.7826 9.46651 17.73 9.50926 17.667C9.61256 17.5634 9.71555 17.46 9.81884 17.3564C9.88157 17.3135 9.93432 17.2609 9.97707 17.198C10.0804 17.0943 10.1834 16.991 10.2867 16.8873C10.3494 16.8444 10.4021 16.7918 10.4449 16.7289C10.5613 16.6124 10.678 16.4959 10.7944 16.3794C10.8428 16.3484 10.8834 16.3096 10.9127 16.2598C11.016 16.1562 11.1193 16.0529 11.2223 15.9492C11.285 15.9063 11.3377 15.8537 11.3805 15.7908C11.4838 15.6871 11.5868 15.5838 11.6901 15.4801C11.7528 15.4372 11.8056 15.3846 11.8483 15.3217C11.9516 15.2181 12.0546 15.1147 12.1579 15.0111C12.2206 14.9682 12.2734 14.9156 12.3161 14.8526C12.4325 14.7362 12.5492 14.6197 12.6656 14.5032C12.714 14.4722 12.7546 14.4334 12.7839 14.3836C12.8872 14.2799 12.9905 14.1766 13.0935 14.0729C13.1562 14.03 13.209 13.9774 13.2517 13.9145C13.355 13.8109 13.458 13.7075 13.5613 13.6039C13.6241 13.5613 13.6768 13.5084 13.7192 13.4454C13.8225 13.3418 13.9258 13.2385 14.0288 13.1348C14.0915 13.0922 14.144 13.0393 14.1867 12.9764C14.2729 12.8624 14.3387 12.8918 14.4317 12.9848C14.7969 13.3499 15.1523 13.7254 15.538 14.0695C15.6885 14.2201 15.8389 14.3707 15.989 14.5217C16.1363 14.6911 16.3005 14.8432 16.4665 14.9939C16.6188 15.1564 16.7723 15.3176 16.9433 15.4607C17.0582 15.5584 17.0654 15.6423 16.9131 15.7072C16.909 15.709 16.9065 15.7147 16.9034 15.7187C16.8138 15.7676 16.7205 15.8105 16.6456 15.8831C16.5651 15.9335 16.4849 15.9836 16.4044 16.0341C16.1354 16.1922 15.8701 16.3563 15.6164 16.5385C15.5917 16.5513 15.5668 16.5645 15.5421 16.5773C15.5368 16.5786 15.5324 16.5817 15.5293 16.5858C15.4123 16.6628 15.2949 16.7395 15.1779 16.8166C15.1376 16.8228 15.1058 16.8419 15.0855 16.8783C14.7566 17.0862 14.428 17.2938 14.099 17.5017C13.9677 17.5859 13.836 17.6702 13.7046 17.7541C13.6721 17.7757 13.6397 17.7973 13.6072 17.8189C13.4668 17.8872 13.3366 17.9714 13.2155 18.07C13.1054 18.1139 13.0114 18.1831 12.9206 18.2573C12.8451 18.2883 12.773 18.3252 12.7146 18.3841C12.3885 18.592 12.0627 18.7999 11.7366 19.0075C11.6495 19.0492 11.5687 19.1005 11.496 19.1647C11.4236 19.1882 11.3649 19.2336 11.3087 19.2828C11.0007 19.4597 10.7008 19.6501 10.409 19.8533C10.2536 19.935 10.1081 20.0321 9.96677 20.1354C9.95585 20.1326 9.94742 20.136 9.94149 20.1454C9.61069 20.3568 9.27114 20.5547 8.95282 20.7855C8.80208 20.8515 8.67007 20.947 8.539 21.0444C8.51029 21.0629 8.48158 21.081 8.45318 21.0995C8.31961 21.1734 8.18541 21.2458 8.06807 21.345C7.95322 21.3982 7.84899 21.4684 7.75162 21.5485C7.68858 21.5871 7.62523 21.6253 7.56219 21.6638C7.23606 21.8717 6.91025 22.0796 6.58412 22.2875C6.49861 22.3251 6.42309 22.3783 6.35225 22.4385C6.2786 22.4738 6.2065 22.5114 6.14658 22.569C5.84387 22.7375 5.55862 22.9338 5.26808 23.122C5.1164 23.2206 4.96505 23.3196 4.81337 23.4182L4.80308 23.4157L4.79621 23.4214Z" fill="white"/>
<path d="M2.36409 0.990706C2.38812 0.978807 2.37314 0.899899 2.43181 0.949373C2.46333 0.975989 2.49017 1.00855 2.5195 1.03799C6.12123 4.65085 9.72234 8.26402 13.3263 11.8744C13.4189 11.9674 13.4542 12.0334 13.3381 12.1224C13.2754 12.1653 13.2226 12.2182 13.1799 12.2811C13.0635 12.3976 12.9468 12.5141 12.8304 12.6306C12.782 12.6616 12.7414 12.7004 12.7121 12.7502C12.6088 12.8538 12.5055 12.9572 12.4025 13.0608C12.3398 13.1037 12.287 13.1563 12.2443 13.2193C12.1279 13.3357 12.0111 13.4522 11.8947 13.5687C11.8464 13.5997 11.8058 13.6385 11.7765 13.6883C11.6732 13.792 11.5699 13.8953 11.4669 13.9989C11.4041 14.0418 11.3514 14.0945 11.3086 14.1574C11.1922 14.2739 11.0755 14.3904 10.9591 14.5068C10.9107 14.5378 10.8702 14.5767 10.8408 14.6265C10.7375 14.7301 10.6342 14.8334 10.5313 14.9371C10.4685 14.98 10.4158 15.0326 10.373 15.0955C10.2566 15.212 10.1399 15.3285 10.0235 15.445C9.97512 15.476 9.93455 15.5148 9.90522 15.5646C9.80192 15.6682 9.69862 15.7716 9.59563 15.8752C9.53291 15.9181 9.48016 15.9707 9.43741 16.0336C9.321 16.1501 9.20428 16.2666 9.08788 16.3831C9.03951 16.4141 8.99893 16.4529 8.9696 16.5027C8.8663 16.6064 8.763 16.7097 8.66001 16.8133C8.59729 16.8562 8.54454 16.9088 8.50179 16.9718C8.38538 17.0883 8.26866 17.2047 8.15226 17.3212C8.10389 17.3522 8.06331 17.3911 8.03398 17.4408C7.93068 17.5445 7.82738 17.6478 7.72439 17.7515C7.66167 17.7944 7.60892 17.847 7.56617 17.9099C7.44976 18.0264 7.33304 18.1429 7.21664 18.2594C7.16827 18.2904 7.1277 18.3292 7.09836 18.379C6.99506 18.4826 6.89176 18.5859 6.78877 18.6896C6.72605 18.7325 6.6733 18.7851 6.63055 18.848C6.51414 18.9645 6.39742 19.081 6.28102 19.1975C6.23265 19.2285 6.19208 19.2673 6.16274 19.3171C6.05944 19.4207 5.95614 19.5241 5.85316 19.6277C5.79043 19.6706 5.73769 19.7232 5.69493 19.7862C5.57852 19.9026 5.46181 20.0191 5.3454 20.1356C5.29703 20.1666 5.25646 20.2054 5.22712 20.2552C5.12382 20.3589 5.02052 20.4622 4.91754 20.5659C4.85481 20.6087 4.80207 20.6614 4.75931 20.7243C4.6429 20.8408 4.52619 20.9573 4.40978 21.0737C4.36141 21.1047 4.32084 21.1436 4.2915 21.1934C4.1882 21.297 4.0849 21.4003 3.98192 21.504C3.91919 21.5469 3.86645 21.5995 3.82369 21.6624C3.70728 21.7789 3.59057 21.8954 3.47416 22.0119C3.42579 22.0429 3.38522 22.0817 3.35588 22.1315C3.25258 22.2351 3.14928 22.3385 3.0463 22.4421C2.98357 22.4847 2.93083 22.5376 2.88838 22.6006C2.77198 22.717 2.65526 22.8335 2.53885 22.95C2.49079 22.9813 2.44928 23.0189 2.42245 23.0706C2.31603 22.9838 2.35628 22.8623 2.35628 22.7559C2.35566 15.5862 2.35597 8.41401 2.35597 1.24152C2.35597 1.1789 2.35784 1.11658 2.35909 1.05396C2.36065 1.03298 2.36221 1.012 2.36409 0.990706Z" fill="white"/>
<path d="M21.1342 11.0012C21.214 11.0732 21.2943 11.1452 21.3741 11.2175C21.5923 11.5056 21.6847 11.8281 21.6407 12.1885C21.6366 12.2227 21.6325 12.2571 21.6285 12.2916C21.5882 12.3921 21.548 12.4926 21.508 12.5928C21.3951 12.7453 21.2836 12.8981 21.1189 13.002C20.9766 13.0919 20.8386 13.189 20.6988 13.2829C20.5683 13.3578 20.437 13.4304 20.3221 13.5294C20.2825 13.5334 20.2541 13.5569 20.2282 13.5845C19.8889 13.8049 19.5497 14.025 19.2105 14.2455C19.0832 14.3056 18.9658 14.3817 18.8578 14.4719C18.8297 14.4903 18.8017 14.5088 18.7736 14.5273C18.6466 14.5868 18.5301 14.6626 18.4225 14.7524C18.3978 14.7653 18.3729 14.7784 18.3482 14.7913C18.3426 14.7925 18.3382 14.7956 18.3351 14.8003C18.2015 14.8774 18.0711 15.0333 17.9269 14.8154C17.8298 14.7048 17.7337 14.594 17.6176 14.5022C17.5527 14.4365 17.4875 14.3704 17.4226 14.3047C17.3349 14.2135 17.2475 14.1224 17.1598 14.0313C17.0936 13.9649 17.0272 13.8982 16.961 13.8318C16.8805 13.7326 16.7909 13.6424 16.692 13.5619C16.6258 13.4955 16.5597 13.4292 16.4935 13.3625C16.3028 13.1505 16.1093 12.941 15.8949 12.7528C15.8643 12.7224 15.8341 12.6917 15.8035 12.6614C15.7935 12.6498 15.7832 12.6385 15.7732 12.6269C15.723 12.5527 15.6578 12.4935 15.5885 12.4378C15.4845 12.3326 15.3803 12.2274 15.2764 12.1222C15.1656 12.037 15.1778 11.9606 15.2848 11.8785C15.3407 11.8356 15.3828 11.7752 15.4312 11.7226C15.4933 11.6797 15.5457 11.6268 15.5885 11.5648C15.7092 11.4568 15.8269 11.3459 15.9289 11.2194C15.9598 11.1872 15.9907 11.1549 16.0216 11.1227C16.1565 10.9968 16.296 10.8756 16.4064 10.7259L16.4036 10.7287C16.427 10.7059 16.4504 10.6827 16.4738 10.6599C16.4804 10.6533 16.4873 10.6464 16.4938 10.6398C16.6118 10.5215 16.7301 10.4031 16.848 10.2844C16.8948 10.2556 16.9326 10.2177 16.9616 10.1704C17.0796 10.0521 17.1979 9.93371 17.3158 9.81504C17.3514 9.7759 17.387 9.73707 17.4229 9.69793C17.5399 9.57988 17.6569 9.46183 17.774 9.34378C17.8161 9.29994 17.8579 9.25642 17.9001 9.21258C18.0892 9.05007 18.0889 9.05007 18.3079 9.1869C18.3248 9.19755 18.3432 9.20538 18.361 9.21446C18.4094 9.25204 18.4549 9.29462 18.5167 9.3109C18.6116 9.39013 18.7146 9.45682 18.8257 9.51099C18.9449 9.60712 19.0725 9.6901 19.2105 9.7568C19.2564 9.78748 19.3022 9.81786 19.3481 9.84854C19.4539 9.93277 19.5666 10.0057 19.6877 10.0655C20.025 10.2838 20.3624 10.5017 20.6997 10.72C20.7103 10.7447 20.7309 10.7522 20.7559 10.7522C20.8711 10.8512 21.0028 10.926 21.1342 11.0012Z" fill="white"/>
</svg>
