<svg width="44" height="44" viewBox="0 0 44 44" fill="none" xmlns="http://www.w3.org/2000/svg">
<rect width="44" height="44" rx="8" fill="#C90000"/>
<path fill-rule="evenodd" clip-rule="evenodd" d="M15.9963 22C15.344 22 14.8663 22.6144 15.0272 23.2466L16.4249 28.7398C16.7632 30.0693 17.9603 31 19.3322 31H24.6652C26.0383 31 27.2362 30.0678 27.5734 28.7367L28.9644 23.2456C29.1245 22.6137 28.6469 22 27.9951 22H15.9963ZM19 26C19 25.4477 19.4477 25 20 25C20.5523 25 21 25.4477 21 26V27C21 27.5523 20.5523 28 20 28C19.4477 28 19 27.5523 19 27V26ZM23 26C23 25.4477 23.4477 25 24 25C24.5523 25 25 25.4477 25 26V27C25 27.5523 24.5523 28 24 28C23.4477 28 23 27.5523 23 27V26Z" fill="#FFEAE6"/>
<path d="M13 19C13 18.4477 13.4477 18 14 18H30C30.5523 18 31 18.4477 31 19C31 19.5523 30.5523 20 30 20H14C13.4477 20 13 19.5523 13 19Z" fill="#FFEAE6"/>
<path fill-rule="evenodd" clip-rule="evenodd" d="M20.7071 14.7071C21.0976 14.3166 21.0976 13.6834 20.7071 13.2929C20.3166 12.9024 19.6834 12.9024 19.2929 13.2929L18.2929 14.2929C17.9024 14.6834 17.9024 15.3166 18.2929 15.7071C18.6834 16.0976 19.3166 16.0976 19.7071 15.7071L20.7071 14.7071ZM23.2929 14.7071C22.9024 14.3166 22.9024 13.6834 23.2929 13.2929C23.6834 12.9024 24.3166 12.9024 24.7071 13.2929L25.7071 14.2929C26.0976 14.6834 26.0976 15.3166 25.7071 15.7071C25.3166 16.0976 24.6834 16.0976 24.2929 15.7071L23.2929 14.7071Z" fill="#FFEAE6"/>
</svg>
