<svg width="21" height="16" viewBox="0 0 21 16" fill="none" xmlns="http://www.w3.org/2000/svg">
<path fill-rule="evenodd" clip-rule="evenodd" d="M18.5 4.00175C18.5 4.00117 18.5 4.00058 18.5 4C18.5 3.99994 18.5 3.99988 18.5 3.99982L20.375 1.97672C20.6807 1.64695 20.4058 1.11563 19.96 1.17458L17.6108 1.48528C16.8775 0.57926 15.7564 0 14.5 0C12.2909 0 10.5 1.79086 10.5 4C10.5 4.52744 10.6021 5.03104 10.7876 5.49212C7.79119 5.42205 4.58291 4.82913 2.96086 1.6154C2.76014 1.21773 2.18475 1.1947 2.05697 1.62143C0.883241 5.54144 2.94886 10.6347 7.49978 12C6.3645 13.11 3.44612 13.4114 1.05791 13.1927C0.593179 13.1502 0.301424 13.6796 0.660808 13.9773C2.66333 15.6361 5.44071 16 7.99986 16C14.4992 16 18.999 10.501 18.5 4.00175Z" fill="#7D7C7C"/>
</svg>
